<svg width="234" height="234" viewBox="0 0 234 234" fill="none" xmlns="http://www.w3.org/2000/svg">
<g clip-path="url(#clip0_129_345)">
<path d="M189.849 1.10378H44.1512C20.3769 1.10378 1.104 20.3766 1.104 44.1509V189.849C1.104 213.623 20.3769 232.896 44.1512 232.896H189.849C213.624 232.896 232.896 213.623 232.896 189.849V44.1509C232.896 20.3766 213.624 1.10378 189.849 1.10378Z" fill="url(#paint0_linear_129_345)" stroke="white"/>
<path d="M144.094 129.286H89.4643C88.0751 129.286 86.8618 130.258 86.7192 131.64C85.6227 142.261 90.4917 159.706 118.224 159.706C146.187 159.706 149.088 141.968 146.799 131.376C146.528 130.12 145.378 129.286 144.094 129.286Z" fill="white"/>
<path d="M78.9727 80.147C78.9727 73.6851 84.2109 68.447 90.6727 68.447H97.6927C104.154 68.447 109.393 73.6853 109.393 80.147V108.227C109.393 111.458 106.774 114.077 103.543 114.077H84.8227C81.5919 114.077 78.9727 111.458 78.9727 108.227V80.147Z" fill="white"/>
<path d="M124.604 80.147C124.604 73.6853 129.843 68.447 136.304 68.447H143.324C149.786 68.447 155.024 73.6853 155.024 80.147V108.227C155.024 111.458 152.405 114.077 149.174 114.077H130.454C127.224 114.077 124.604 111.458 124.604 108.227V80.147Z" fill="white"/>
</g>
<defs>
<linearGradient id="paint0_linear_129_345" x1="234" y1="117" x2="0.000227678" y2="117" gradientUnits="userSpaceOnUse">
<stop stop-color="#FDCBA6"/>
<stop offset="1" stop-color="#FF9B9D"/>
</linearGradient>
<clipPath id="clip0_129_345">
<rect width="234" height="234" fill="white"/>
</clipPath>
</defs>
</svg>
